name C:\Users\u0101727\Documents\MyRepositories\upper-imu-dc\Results\main_tracking\Case_59\kinematics.mot
datacolumns 10
datarows 33
range 7.88000000 8.20000000
endheader 
time	clav_prot	clav_elev	scapula_abduction	scapula_elevation	scapula_upward_rot	scapula_winging	plane_elv	shoulder_elv	axial_rot	
          7.88000000	        -44.38683875	          0.77988309	        -15.96730097	         -8.59708420	         59.54873460	        -10.37836766	         31.18251115	         74.00218840	          2.20553849	
          7.89000000	        -44.34459273	          0.81411335	        -16.28106911	         -8.56183982	         59.06334808	        -10.36081365	         31.27201371	         73.56588294	          2.35980718	
          7.90000000	        -44.30192119	          0.84767023	        -16.59500640	         -8.52570458	         58.57683669	        -10.34095282	         31.36003154	         73.12308599	          2.50768423	
          7.91000000	        -44.25911218	          0.88055070	        -16.90893374	         -8.48870890	         58.08999626	        -10.31895987	         31.44522351	         72.67432948	          2.64798825	
          7.92000000	        -44.21647072	          0.91278864	        -17.22266602	         -8.45086873	         57.60367323	        -10.29504994	         31.52624155	         72.22020896	          2.77957036	
          7.93000000	        -44.17431368	          0.94445773	        -17.53601128	         -8.41218362	         57.11875675	        -10.26947742	         31.60175162	         71.76137767	          2.90133627	
          7.94000000	        -44.13296516	          0.97567251	        -17.84877323	         -8.37263593	         56.63616709	        -10.24253378	         31.67045760	         71.29853752	          3.01227365	
          7.95000000	        -44.09275263	          1.00658674	        -18.16075700	         -8.33219145	         56.15684052	        -10.21454404	         31.73112654	         70.83242691	          3.11148291	
          7.96000000	        -44.05400369	          1.03738890	        -18.47177762	         -8.29080176	         55.68171091	        -10.18586168	         31.78261375	         70.36380504	          3.19820839	
          7.97000000	        -44.01704323	          1.06829465	        -18.78166996	         -8.24840825	         55.21168945	        -10.15686179	         31.82388621	         69.89343352	          3.27186686	
          7.98000000	        -43.98219077	          1.09953637	        -19.09029836	         -8.20494778	         54.74764376	        -10.12793246	         31.85404327	         69.42205584	          3.33207018	
          7.99000000	        -43.94975748	          1.13135034	        -19.39756468	         -8.16035969	         54.29037785	        -10.09946456	         31.87233295	         68.95037602	          3.37863923	
          8.00000000	        -43.92004287	          1.16396264	        -19.70341380	         -8.11459340	         53.84061400	        -10.07184059	         31.87816229	         68.47903734	          3.41160731	
          8.01000000	        -43.89333096	          1.19757562	        -20.00783542	         -8.06761555	         53.39897834	        -10.04542349	         31.87109995	         68.00860401	          3.43121212	
          8.02000000	        -43.86988499	          1.23235780	        -20.31086095	         -8.01941460	         52.96599110	        -10.02054671	         31.85087185	         67.53954778	          3.43787821	
          8.03000000	        -43.84994073	          1.26843907	        -20.61255527	         -7.97000205	         52.54206223	         -9.99750624	         31.81735065	         67.07224126	          3.43219252	
          8.04000000	        -43.83369905	          1.30591108	        -20.91300486	         -7.91941002	         52.12749219	         -9.97655532	         31.77054082	         66.60695799	          3.41487662	
          8.05000000	        -43.82131895	          1.34483178	        -21.21230448	         -7.86768653	         51.72247669	         -9.95790175	         31.71056176	         66.14387788	          3.38675852	
          8.06000000	        -43.81291198	          1.38523217	        -21.51054434	         -7.81488954	         51.32711485	         -9.94170733	         31.63763085	         65.68309607	          3.34874595	
          8.07000000	        -43.80853855	          1.42712384	        -21.80779841	         -7.76108090	         50.94141950	         -9.92808914	         31.55204841	         65.22463361	          3.30180234	
          8.08000000	        -43.80820607	          1.47050623	        -22.10411463	         -7.70632102	         50.56532914	         -9.91712185	         31.45418490	         64.76844844	          3.24692530	
          8.09000000	        -43.81186886	          1.51537295	        -22.39950724	         -7.65066440	         50.19872007	         -9.90884076	         31.34447058	         64.31444565	          3.18512782	
          8.10000000	        -43.81942959	          1.56171678	        -22.69395156	         -7.59415655	         49.84141828	         -9.90324513	         31.22338662	         63.86248627	          3.11742144	
          8.11000000	        -43.83074195	          1.60953318	        -22.98738109	         -7.53683196	         49.49321008	         -9.90030152	         31.09145669	         63.41239452	          3.04480095	
          8.12000000	        -43.84561437	          1.65882243	        -23.27968675	         -7.47871330	         49.15385175	         -9.89994705	         30.94923824	         62.96396362	          2.96822999	
          8.13000000	        -43.86381419	          1.70959061	        -23.57071731	         -7.41981143	         48.82307794	         -9.90209243	         30.79731347	         62.51696065	          2.88862738	
          8.14000000	        -43.88507185	          1.76184955	        -23.86028052	         -7.36012627	         48.50060907	         -9.90662441	         30.63628010	         62.07113052	          2.80685455	
          8.15000000	        -43.90908480	          1.81561582	        -24.14814439	         -7.29964817	         48.18615739	         -9.91340773	         30.46674277	         61.62619928	          2.72370469	
          8.16000000	        -43.93552083	          1.87090895	        -24.43403880	         -7.23835979	         47.87943124	         -9.92228619	         30.28930505	         61.18187656	          2.63989444	
          8.17000000	        -43.96402088	          1.92774880	        -24.71765776	         -7.17623837	         47.58013719	         -9.93308296	         30.10456180	         60.73785746	          2.55605875	
          8.18000000	        -43.99420158	          1.98615244	        -24.99866276	         -7.11325818	         47.28797979	         -9.94560031	         29.91309144	         60.29382377	          2.47274882	
          8.19000000	        -44.02565790	          2.04613039	        -25.27668750	         -7.04939318	         47.00265945	         -9.95961894	         29.71544772	         59.84944514	          2.39043312	
          8.20000000	        -44.05796611	          2.10768233	        -25.55134375	         -6.98462000	         46.72386904	         -9.97489723	         29.51215114	         59.40438018	          2.30950031	
